<svg version="1.1" xmlns="http://www.w3.org/2000/svg" xmlns:xlink="http://www.w3.org/1999/xlink" width="161.05128" height="137.46467" viewBox="0,0,161.05128,137.46467"><defs><radialGradient cx="239.99999" cy="187.21008" r="80.52565" gradientUnits="userSpaceOnUse" id="color-1"><stop offset="0" stop-color="#302939" stop-opacity="0.21963"/><stop offset="1" stop-color="#c2b8ff"/></radialGradient></defs><g transform="translate(-159.47438,-118.47775)"><g data-paper-data="{&quot;isPaintingLayer&quot;:true}" stroke="none" stroke-linejoin="miter" stroke-dasharray="" stroke-dashoffset="0" style="mix-blend-mode: normal"><path d="M191.22387,176.56606c0,-27.2546 22.09437,-49.34866 49.34842,-49.34866c27.25424,0 49.34843,22.09406 49.34843,49.34866c0,27.25396 -22.09419,49.348 -49.34843,49.348c-27.25406,0 -49.34842,-22.09404 -49.34842,-49.348z" fill="#302939" fill-rule="evenodd" stroke-width="1.08849" stroke-linecap="square" stroke-miterlimit="1.5"/><path d="M240.5723,225.91405c-27.25406,0 -49.34842,-22.09403 -49.34842,-49.34797c0,-27.2546 22.09437,-49.34866 49.34842,-49.34866c27.25424,0 49.34843,22.09406 49.34843,49.34866c0,27.25394 -22.09419,49.34797 -49.34843,49.34797z" fill="#0c0512" fill-rule="evenodd" stroke-width="1.08849" stroke-linecap="square" stroke-miterlimit="1.5"/><path d="M270.3035,146.84029c-0.00017,0 -0.00017,-0.00027 0,0c7.60116,7.60087 12.31314,18.15247 12.31314,29.72606c0,11.57359 -4.71232,22.12451 -12.31314,29.72528c-7.60065,7.60089 -18.15557,12.31376 -29.729,12.31376c-11.5736,0 -22.12446,-4.7129 -29.72528,-12.31376c-7.60099,-7.60092 -12.31365,-18.152 -12.31365,-29.72528c0,-11.57332 4.71249,-22.125 12.31365,-29.72606v0l8.48593,8.48594c0.00051,0 0.00034,-0.00027 0,0c-5.44239,5.44229 -8.79686,12.9091 -8.79686,21.23931c0,8.33026 3.3543,15.79687 8.79686,21.23931c5.44239,5.44243 12.90931,8.79687 21.23935,8.79687c8.32987,0 15.79679,-3.35444 21.23935,-8.79687c5.44256,-5.44264 8.79991,-12.90939 8.79991,-21.23931c0,-8.32951 -3.35718,-15.79621 -8.79923,-21.23854l8.4883,-8.4883z" fill="#a935f2" fill-rule="nonzero" stroke-width="20.8952" stroke-linecap="square" stroke-miterlimit="4"/><path d="M214.81811,150.80766c-6.57216,6.58085 -10.64605,15.70985 -10.64605,25.72302c0,10.02184 4.08099,19.15968 10.66312,25.74164c6.58179,6.58202 15.71867,10.66231 25.74066,10.66231c10.02233,0 19.15886,-4.0803 25.741,-10.66231c6.58179,-6.58185 10.66228,-15.71952 10.66228,-25.74164c0,-10.01367 -4.07389,-19.14233 -10.64588,-25.72302l3.9672,-3.96737c0,0 -0.00017,-0.00024 0,0c7.60098,7.6009 12.31297,18.1517 12.31297,29.7253c0,11.57359 -4.71232,22.12529 -12.31297,29.72604c-7.60082,7.60089 -18.15253,12.31301 -29.72596,12.31301c-11.57377,0 -22.12463,-4.71212 -29.72528,-12.31301c-7.60099,-7.6009 -12.31382,-18.15278 -12.31382,-29.72604c0,-11.57326 4.71266,-22.12424 12.31382,-29.7253z" fill-opacity="0.21963" fill="#302939" fill-rule="nonzero" stroke-width="20.8952" stroke-linecap="square" stroke-miterlimit="4"/><path d="M228.25942,164.54485c-3.15479,3.15484 -5.10238,7.48756 -5.10238,12.31375c0,4.82617 1.94759,9.16113 5.10238,12.31608c3.15496,3.15489 7.48991,5.10164 12.31619,5.10164c4.82594,0 9.15801,-1.94676 12.3128,-5.10164c3.15496,-3.15503 5.10255,-7.49004 5.10255,-12.31608c0,-4.82606 -1.94759,-9.15883 -5.10255,-12.31375l4.0093,-4.00844c4.17432,4.17425 6.76017,9.96435 6.76017,16.32219c0,6.35787 -2.58602,12.15111 -6.76017,16.32528c-4.17432,4.17422 -9.96433,6.7601 -16.3221,6.7601c-6.35794,0 -12.15117,-2.58588 -16.32532,-6.7601c-4.17432,-4.17425 -6.76017,-9.96757 -6.76017,-16.32528c0,-6.35774 2.58568,-12.14785 6.76017,-16.32219c0.00024,-0.00017 0.00041,-0.0003 0.00057,-0.00057z" fill-opacity="0.16822" fill="#ffffff" fill-rule="nonzero" stroke-width="9.86778" stroke-linecap="square" stroke-miterlimit="4"/><path d="M246.70071,135.90874h-12.26086l6.1304,-6.1304zM246.70071,135.91626v-0.00752z" fill="#fefefe" fill-rule="nonzero" stroke-width="19.1164" stroke-linecap="butt" stroke-miterlimit="4"/><path d="M246.69912,135.90874h-6.1273l3.06286,-3.06445z" fill="#d3ced8" fill-rule="nonzero" stroke-width="9.55819" stroke-linecap="butt" stroke-miterlimit="4"/><path d="M245.11838,175.36584h-3.06412l-1.5328,-1.10328v10.18812l-4.59694,3.7394v-12.82425l4.59694,-3.73863z" fill="#fefefe" fill-rule="nonzero" stroke-width="8.7525" stroke-linecap="butt" stroke-miterlimit="4"/><path d="M245.11838,175.36584v12.82425l-4.59692,-3.7394v-10.18812v-2.63535z" fill="#d3ced8" fill-rule="nonzero" stroke-width="9.46052" stroke-linecap="butt" stroke-miterlimit="4"/><path d="M238.42232,164.53794l-0.51483,0.41867l-0.51483,0.41869l-15.94616,-15.94618l0.46676,-0.46672l0.04877,0.04802l0.46676,-0.46676z" fill="#f3a736" fill-rule="nonzero" stroke-width="5.33612" stroke-linecap="butt" stroke-miterlimit="4"/><path d="M235.97494,142.90374c-5.47161,0.83915 -10.45013,3.15351 -14.5281,6.52516l-2.17324,-2.17324c4.64991,-3.91092 10.39355,-6.56938 16.70134,-7.44703z" fill="#fefefe" fill-rule="nonzero" stroke-width="5.33612" stroke-linecap="butt" stroke-miterlimit="4"/><path d="M259.2064,149.03134l0.04578,-0.04653l0.44429,0.44425l-15.99112,15.99112l-0.49002,-0.39773l-0.49002,-0.39776l16.03685,-16.0376z" fill="#c67f00" fill-rule="nonzero" stroke-width="5.33612" stroke-linecap="butt" stroke-miterlimit="4"/><path d="M245.1687,139.80853c6.30778,0.87766 12.05143,3.53611 16.70134,7.44703l-2.17324,2.17324c-4.07797,-3.37165 -9.0565,-5.68601 -14.5281,-6.52516z" fill="#d3ced8" fill-rule="nonzero" stroke-width="5.33612" stroke-linecap="butt" stroke-miterlimit="4"/><path d="M242.10467,135.90874v52.23844l-1.53205,1.10174l-1.5328,-1.10174v-52.23844z" fill="#f3a736" fill-rule="nonzero" stroke-width="4.82641" stroke-linecap="butt" stroke-miterlimit="4"/><path d="M242.10467,135.90874v52.23844l-1.53285,1.10099v-1.10099v-1.10096v-51.13748z" fill="#c67f00" fill-rule="nonzero" stroke-width="3.41277" stroke-linecap="butt" stroke-miterlimit="4"/><path d="M197.81384,133.22789c-10.8378,10.85213 -17.55583,25.90628 -17.55583,42.41848c0,16.52649 6.72975,31.59522 17.584,42.44918c10.85369,10.85406 25.92083,17.58266 42.44756,17.58266c16.52729,0 31.59387,-6.7286 42.44813,-17.58266c10.85369,-10.85378 17.5826,-25.92222 17.5826,-42.44918c0,-16.51301 -6.71804,-31.5666 -17.55556,-42.41848l6.5421,-6.54239c0,0 -0.00029,-0.00039 0,0c12.53438,12.53425 20.30467,29.93301 20.30467,49.01842c0,19.08539 -7.77084,36.48565 -20.30467,49.01964c-12.53411,12.53422 -29.93437,20.30473 -49.0195,20.30473c-19.08569,0 -36.48456,-7.7705 -49.01839,-20.30473c-12.53439,-12.53425 -20.30607,-29.93479 -20.30607,-49.01964c0,-19.08485 7.7714,-36.48391 20.30607,-49.01842z" fill="#aa92cb" fill-rule="nonzero" stroke-width="20.8952" stroke-linecap="square" stroke-miterlimit="4"/><path d="M190.66384,126.07745c-12.58895,12.6056 -20.39248,30.09219 -20.39248,49.2724c0,19.19681 7.81713,36.70033 20.4252,49.30806c12.60742,12.60784 30.10908,20.42364 49.30619,20.42364c19.19775,0 36.69876,-7.8158 49.30685,-20.42364c12.60742,-12.60751 20.42358,-30.1107 20.42358,-49.30806c0,-19.18117 -7.80353,-36.66709 -20.39216,-49.2724l7.59917,-7.5995c0,0 -0.00033,-0.00045 0,0c14.55967,14.55952 23.58547,34.76955 23.58547,56.93875c0,22.16919 -9.02644,42.38095 -23.58547,56.94018c-14.55935,14.55949 -34.77112,23.58554 -56.94001,23.58554c-22.16953,0 -42.37968,-9.02605 -56.93871,-23.58554c-14.55968,-14.55952 -23.58709,-34.77161 -23.58709,-56.94017c0,-22.16855 9.02709,-42.37893 23.58709,-56.93875z" fill="url(#color-1)" fill-rule="nonzero" stroke-width="20.8952" stroke-linecap="square" stroke-miterlimit="4"/></g></g></svg>
